<?xml version="1.0" standalone="no"?>
<!DOCTYPE svg PUBLIC "-//W3C//DTD SVG 20010904//EN"
 "http://www.w3.org/TR/2001/REC-SVG-20010904/DTD/svg10.dtd">
<svg version="1.0" xmlns="http://www.w3.org/2000/svg"
 width="819.000000pt" height="814.000000pt" viewBox="0 0 819.000000 814.000000"
 preserveAspectRatio="xMidYMid meet">

<g transform="translate(0.000000,814.000000) scale(0.100000,-0.100000)"
fill="#FFFFFF" stroke="none">
<path d="M0 8088 l0 -52 23 31 c13 18 34 41 48 52 l24 20 -47 1 -48 0 0 -52z"/>
<path d="M8130 8137 c0 -2 14 -16 30 -32 l30 -29 0 32 c0 29 -3 32 -30 32 -16
0 -30 -1 -30 -3z"/>
<path d="M4222 7173 l3 -938 102 -12 c155 -18 254 -40 415 -94 209 -69 432
-184 584 -300 35 -27 67 -49 71 -49 5 0 307 300 673 666 l665 665 -45 40 c-71
64 -277 220 -376 287 -484 324 -1034 539 -1597 626 -153 24 -374 46 -459 46
l-38 0 2 -937z"/>
<path d="M3580 8080 c-515 -68 -1013 -236 -1460 -493 -192 -110 -446 -288
-580 -406 l-45 -40 530 -533 c292 -293 589 -591 661 -661 l131 -128 99 64
c131 86 305 176 429 222 102 38 332 99 418 110 l47 6 0 940 0 939 -47 -1 c-27
0 -109 -9 -183 -19z"/>
<path d="M1116 6767 c-436 -486 -769 -1142 -905 -1787 -37 -174 -81 -478 -81
-562 l0 -28 935 0 c741 0 935 3 935 13 0 6 11 69 24 138 59 315 216 655 418
905 l66 81 -657 657 c-361 361 -659 656 -663 656 -4 0 -36 -33 -72 -73z"/>
<path d="M6369 6143 l-667 -668 49 -65 c202 -266 353 -619 399 -933 l13 -87
952 0 953 0 -5 48 c-51 559 -175 1005 -409 1474 -109 220 -194 359 -348 573
-74 103 -257 325 -267 325 -2 0 -304 -300 -670 -667z"/>
<path d="M3839 5825 c-730 -119 -1291 -670 -1425 -1400 -28 -153 -26 -452 4
-604 142 -712 687 -1248 1394 -1372 260 -46 561 -24 816 60 446 147 803 457
1008 877 347 712 163 1558 -450 2069 -202 168 -472 298 -741 355 -130 28 -474
37 -606 15z"/>
<path d="M129 3955 c-15 -165 72 -681 168 -995 143 -472 422 -988 737 -1360
44 -52 82 -97 83 -100 2 -2 303 295 668 660 l664 664 -20 25 c-54 68 -165 247
-213 341 -115 225 -185 456 -221 730 l-5 45 -930 0 c-613 0 -930 -3 -931 -10z"/>
<path d="M6165 3903 c-36 -312 -160 -651 -335 -916 -40 -60 -69 -112 -66 -115
4 -4 307 -307 673 -674 l667 -668 23 28 c555 661 876 1450 939 2305 l7 97
-951 0 -951 0 -6 -57z"/>
<path d="M5425 2533 c-121 -106 -345 -244 -517 -317 -186 -80 -426 -142 -620
-161 l-68 -7 0 -945 0 -946 113 8 c886 55 1708 391 2375 969 50 44 92 85 92
91 0 5 -300 310 -667 677 l-668 667 -40 -36z"/>
<path d="M2081 1856 l-663 -663 119 -99 c605 -507 1311 -814 2093 -909 68 -8
137 -15 152 -15 l28 0 -2 947 -3 948 -55 8 c-314 46 -650 188 -920 388 -44 32
-81 59 -83 59 -1 0 -301 -299 -666 -664z"/>
</g>
</svg>
